<mxfile host="app.diagrams.net" modified="2020-08-07T13:48:02.699Z" agent="5.0 (Macintosh; Intel Mac OS X 10_14_6) AppleWebKit/537.36 (KHTML, like Gecko) Chrome/84.0.4147.105 Safari/537.36" etag="eb1tNMkLy--JsvHBBUeu" version="13.6.0" type="github">
  <diagram id="CnDp9Ytq1tiV_GHWyZOq" name="Page-1">
    <mxGraphModel dx="946" dy="614" grid="1" gridSize="10" guides="1" tooltips="1" connect="1" arrows="1" fold="1" page="1" pageScale="1" pageWidth="827" pageHeight="1169" math="0" shadow="0">
      <root>
        <mxCell id="0" />
        <mxCell id="1" parent="0" />
        <mxCell id="noKN3m8uvJxdRkCpXrqW-12" value="" style="rounded=0;whiteSpace=wrap;html=1;" vertex="1" parent="1">
          <mxGeometry x="40" y="300" width="810" height="110" as="geometry" />
        </mxCell>
        <mxCell id="noKN3m8uvJxdRkCpXrqW-9" value="" style="rounded=0;whiteSpace=wrap;html=1;" vertex="1" parent="1">
          <mxGeometry x="40" y="430" width="810" height="110" as="geometry" />
        </mxCell>
        <mxCell id="noKN3m8uvJxdRkCpXrqW-1" value="" style="rounded=1;whiteSpace=wrap;html=1;" vertex="1" parent="1">
          <mxGeometry x="200" y="450" width="500" height="60" as="geometry" />
        </mxCell>
        <mxCell id="noKN3m8uvJxdRkCpXrqW-2" value="TODOS component" style="text;html=1;strokeColor=none;fillColor=none;align=center;verticalAlign=middle;whiteSpace=wrap;rounded=0;" vertex="1" parent="1">
          <mxGeometry x="350" y="470" width="200" height="20" as="geometry" />
        </mxCell>
        <mxCell id="noKN3m8uvJxdRkCpXrqW-3" value="" style="rounded=1;whiteSpace=wrap;html=1;" vertex="1" parent="1">
          <mxGeometry x="617" y="200" width="220" height="60" as="geometry" />
        </mxCell>
        <mxCell id="noKN3m8uvJxdRkCpXrqW-4" value="backend service" style="text;html=1;strokeColor=none;fillColor=none;align=center;verticalAlign=middle;whiteSpace=wrap;rounded=0;" vertex="1" parent="1">
          <mxGeometry x="680" y="220" width="100" height="20" as="geometry" />
        </mxCell>
        <mxCell id="noKN3m8uvJxdRkCpXrqW-10" value="UI State" style="text;html=1;strokeColor=none;fillColor=none;align=left;verticalAlign=middle;whiteSpace=wrap;rounded=0;" vertex="1" parent="1">
          <mxGeometry x="50" y="440" width="90" height="20" as="geometry" />
        </mxCell>
        <mxCell id="noKN3m8uvJxdRkCpXrqW-11" value="" style="rounded=0;whiteSpace=wrap;html=1;" vertex="1" parent="1">
          <mxGeometry x="40" y="220" width="250" height="60" as="geometry" />
        </mxCell>
        <mxCell id="noKN3m8uvJxdRkCpXrqW-13" value="Persistent state" style="text;html=1;strokeColor=none;fillColor=none;align=center;verticalAlign=middle;whiteSpace=wrap;rounded=0;" vertex="1" parent="1">
          <mxGeometry x="25" y="310" width="140" height="20" as="geometry" />
        </mxCell>
        <mxCell id="noKN3m8uvJxdRkCpXrqW-14" value="" style="rounded=1;whiteSpace=wrap;html=1;align=left;" vertex="1" parent="1">
          <mxGeometry x="200" y="330" width="500" height="60" as="geometry" />
        </mxCell>
        <mxCell id="noKN3m8uvJxdRkCpXrqW-15" value="Redux" style="text;html=1;strokeColor=none;fillColor=none;align=center;verticalAlign=middle;whiteSpace=wrap;rounded=0;" vertex="1" parent="1">
          <mxGeometry x="414" y="350" width="40" height="20" as="geometry" />
        </mxCell>
        <mxCell id="noKN3m8uvJxdRkCpXrqW-16" value="Router state" style="text;html=1;strokeColor=none;fillColor=none;align=center;verticalAlign=middle;whiteSpace=wrap;rounded=0;" vertex="1" parent="1">
          <mxGeometry x="110" y="240" width="90" height="20" as="geometry" />
        </mxCell>
        <mxCell id="noKN3m8uvJxdRkCpXrqW-17" value="" style="rounded=1;whiteSpace=wrap;html=1;align=left;" vertex="1" parent="1">
          <mxGeometry x="210" y="462.5" width="120" height="35" as="geometry" />
        </mxCell>
        <mxCell id="noKN3m8uvJxdRkCpXrqW-18" value="Transient state" style="text;html=1;strokeColor=none;fillColor=none;align=center;verticalAlign=middle;whiteSpace=wrap;rounded=0;" vertex="1" parent="1">
          <mxGeometry x="220" y="470" width="100" height="20" as="geometry" />
        </mxCell>
        <mxCell id="noKN3m8uvJxdRkCpXrqW-21" value="" style="endArrow=classic;startArrow=classic;html=1;exitX=0;exitY=1;exitDx=0;exitDy=0;entryX=0.706;entryY=0;entryDx=0;entryDy=0;entryPerimeter=0;" edge="1" parent="1" source="noKN3m8uvJxdRkCpXrqW-3" target="noKN3m8uvJxdRkCpXrqW-1">
          <mxGeometry width="50" height="50" relative="1" as="geometry">
            <mxPoint x="390" y="370" as="sourcePoint" />
            <mxPoint x="440" y="320" as="targetPoint" />
          </mxGeometry>
        </mxCell>
        <mxCell id="noKN3m8uvJxdRkCpXrqW-22" value="" style="endArrow=classic;html=1;exitX=0.48;exitY=0;exitDx=0;exitDy=0;exitPerimeter=0;" edge="1" parent="1" source="noKN3m8uvJxdRkCpXrqW-1">
          <mxGeometry width="50" height="50" relative="1" as="geometry">
            <mxPoint x="390" y="370" as="sourcePoint" />
            <mxPoint x="440" y="390" as="targetPoint" />
          </mxGeometry>
        </mxCell>
      </root>
    </mxGraphModel>
  </diagram>
</mxfile>
